<svg id="Ebene_1" data-name="Ebene 1" xmlns="http://www.w3.org/2000/svg" xmlns:xlink="http://www.w3.org/1999/xlink" viewBox="0 0 1522.85 1039.68"><defs><style>.cls-1{fill:none;}.cls-2{fill:url(#Neues_Verlaufsfeld_1);}.cls-3{fill:url(#Neues_Verlaufsfeld_1-2);}.cls-4{fill:url(#Unbenannter_Verlauf_77);}.cls-5{fill:url(#Neues_Verlaufsfeld_1-3);}.cls-6{clip-path:url(#clip-path);}.cls-7{fill:#f5f4f5;}</style><linearGradient id="Neues_Verlaufsfeld_1" x1="200.73" y1="-1491.18" x2="2183.6" y2="-1491.18" gradientTransform="matrix(-0.69, 0.73, -1.06, -1, 53.96, -2306.43)" gradientUnits="userSpaceOnUse"><stop offset="0.01" stop-color="#2a7fc2" stop-opacity="0.2"/><stop offset="0.39" stop-color="#4594d0"/><stop offset="0.64" stop-color="#297fc3" stop-opacity="0.03"/><stop offset="1" stop-color="#2581c4" stop-opacity="0"/></linearGradient><linearGradient id="Neues_Verlaufsfeld_1-2" x1="-510.66" y1="-1879.37" x2="1472.21" y2="-1879.37" gradientTransform="matrix(0.06, -1, 0.48, 0.03, 1251.36, 1300.95)" xlink:href="#Neues_Verlaufsfeld_1"/><linearGradient id="Unbenannter_Verlauf_77" x1="277.48" y1="-838.21" x2="1608.43" y2="-838.21" gradientTransform="matrix(-0.04, -0.93, 1.05, -0.03, 2351.04, 1308.64)" gradientUnits="userSpaceOnUse"><stop offset="0.01" stop-color="#2a7fc2" stop-opacity="0.2"/><stop offset="0.03" stop-color="#4594d0"/><stop offset="0.35" stop-color="#2581c4" stop-opacity="0"/><stop offset="0.64" stop-color="#297fc3" stop-opacity="0.03"/><stop offset="0.84" stop-color="#4493d0" stop-opacity="0.94"/><stop offset="1" stop-color="#2581c4" stop-opacity="0"/></linearGradient><linearGradient id="Neues_Verlaufsfeld_1-3" x1="922.71" y1="-2442.96" x2="2556.55" y2="-2442.96" gradientTransform="matrix(0.07, -1.04, 0.49, 0.01, 1239.32, 1348.72)" xlink:href="#Neues_Verlaufsfeld_1"/><clipPath id="clip-path"><rect class="cls-1" x="-350.5" y="-1017.33" width="1509.36" height="2519.67" transform="translate(138.45 631.82) rotate(-86.65)"/></clipPath></defs><title>hintergrund</title><polygon class="cls-2" points="797.6 -275.22 408.6 137.14 796.79 393.16 955.6 224.81 797.6 -275.22"/><polygon class="cls-3" points="352.83 934.79 240.49 705 247.82 579.92 149.67 451.12 257.26 418.79 266.13 267.32 887.41 -73.14 894.54 -194.69 -55.45 154.66 -80.83 587.79 -43.89 639.25 -21.78 589.97 352.83 934.79"/><path class="cls-4" d="M778.51,918.42l70.83,58.11L877,999.22l135.49-218.41L1724.8,669.48l98.7,184.73L2189.58,797,1618.52-176.12l-375.9,58.75L709.79,700.12l-9,154.49Zm646.84-810.06,203.38,388.08-486.06,76Z"/><path class="cls-5" d="M365.66,207.73-115.68-235.35,338.06-1247.09l-106.94-98.44L-265.54-209.18,215.81,233.89c79.51,73.19,116.48,100.46,165.55,120.79q40.25,16.77,78.36,11.22c26.14-3,51.8-14.83,75.92-34.06-1.58-.65-3.17-1.31-4.75-2C482.08,308.47,445.18,280.92,365.66,207.73Z"/><rect class="cls-1" x="283.74" y="-214.9" width="955.38" height="1469.49" transform="translate(197.94 1249.56) rotate(-86.65)"/><g class="cls-6"><path class="cls-7" d="M470.74,439.85c-29.33,36.87-70.58,66.69-118.65,86.07-93.36,40.38-191,40.5-343.2,3.63,61.13,45.59,84,65.1,110.2,99.42,24.51,31.9,40.75,65.49,48.35,99.54l499.4-165.57Z"/><path class="cls-1" d="M-86.44,102.21-628-131.57l-59.1,61.32-143.6,149,557.91,239.13,75.81,32.5c43.1,16.67,93.24,24.87,132.32,22.54,57.25-6.06,105.28-37.17,128.19-83C77.77,261.47,80.78,234,69.4,208c-7.23-15.29-17.85-28.61-35.4-42.23L-9.43,138.45C-29.77,127.58-55,115.79-86.44,102.21Z"/><path class="cls-7" d="M-50.17,1040.75l264.41,15.49L117.52,917S67.15,994.94-50.17,1040.75Z"/><polygon class="cls-7" points="1636.26 880.31 1684.13 63.22 1251.17 134.66 1120.11 354.01 1002.13 368.95 997.18 453.42 1316.94 347.42 1473.65 572.99 1390.67 599.82 1439.74 670.46 809.02 877.32 1636.26 880.31"/><polygon class="cls-7" points="1113.59 -541.03 801.6 -559.31 768.3 9.13 1113.59 -541.03"/></g></svg>