<?xml version="1.0" encoding="utf-8"?>
<!-- Generator: Adobe Illustrator 22.1.0, SVG Export Plug-In . SVG Version: 6.00 Build 0)  -->
<svg version="1.1" id="Ebene_1" xmlns="http://www.w3.org/2000/svg" xmlns:xlink="http://www.w3.org/1999/xlink" x="0px" y="0px"
	 viewBox="0 0 1522.8 1039.7" style="enable-background:new 0 0 1522.8 1039.7;" xml:space="preserve">
<style type="text/css">
	.st0{fill:#FFFFFF;}
	.st1{fill:none;}
	.st2{fill:url(#SVGID_1_);}
	.st3{fill:url(#SVGID_2_);}
	.st4{fill:url(#SVGID_3_);}
	.st5{fill:url(#SVGID_4_);}
	.st6{fill:url(#SVGID_5_);}
	.st7{fill:url(#SVGID_6_);}
	.st8{fill:url(#SVGID_7_);}
	.st9{fill:url(#SVGID_8_);}
	.st10{fill:url(#SVGID_9_);}
	.st11{fill:url(#SVGID_10_);}
	.st12{fill:url(#SVGID_11_);}
	.st13{fill:url(#SVGID_12_);}
	.st14{fill:url(#SVGID_13_);}
	.st15{fill:url(#SVGID_14_);}
	.st16{fill:url(#SVGID_15_);}
	.st17{fill:url(#SVGID_16_);}
	.st18{clip-path:url(#SVGID_18_);fill:none;}
	.st19{clip-path:url(#SVGID_18_);fill:#F5F4F5;}
	.st20{clip-path:url(#SVGID_18_);fill:url(#SVGID_19_);}
	.st21{clip-path:url(#SVGID_18_);fill:url(#SVGID_20_);}
	.st22{clip-path:url(#SVGID_18_);}
</style>
<linearGradient id="SVGID_1_" gradientUnits="userSpaceOnUse" x1="-510.6583" y1="-1879.371" x2="1472.2108" y2="-1879.371" gradientTransform="matrix(5.848207e-02 -0.9983 0.4821 2.824438e-02 1251.3624 1300.9484)">
	<stop  offset="1.187570e-02" style="stop-color:#2A7FC2;stop-opacity:0.2"/>
	<stop  offset="0.3894" style="stop-color:#4594D0"/>
	<stop  offset="0.6417" style="stop-color:#297FC3;stop-opacity:3.000000e-02"/>
	<stop  offset="1" style="stop-color:#2581C4;stop-opacity:0"/>
</linearGradient>
<polygon class="st2" points="352.8,934.8 240.5,705 247.8,579.9 149.7,451.1 257.3,418.8 266.1,267.3 887.4,-73.1 894.5,-194.7 
	-55.5,154.7 -80.8,587.8 -43.9,639.2 -21.8,590 "/>
<linearGradient id="SVGID_2_" gradientUnits="userSpaceOnUse" x1="277.4782" y1="-838.2078" x2="1608.4347" y2="-838.2078" gradientTransform="matrix(-4.347130e-02 -0.933 1.0527 -2.517673e-02 2351.0447 1308.642)">
	<stop  offset="1.187570e-02" style="stop-color:#2A7FC2;stop-opacity:0.2"/>
	<stop  offset="2.774484e-02" style="stop-color:#4594D0"/>
	<stop  offset="0.3458" style="stop-color:#2581C4;stop-opacity:0"/>
	<stop  offset="0.6417" style="stop-color:#297FC3;stop-opacity:3.000000e-02"/>
	<stop  offset="0.844" style="stop-color:#4493D0;stop-opacity:0.9429"/>
	<stop  offset="1" style="stop-color:#2581C4;stop-opacity:0"/>
</linearGradient>
<path class="st3" d="M778.5,918.4l70.8,58.1l27.7,22.7l135.5-218.4l712.3-111.3l98.7,184.7l366.1-57.2l-571.1-973.1l-375.9,58.8
	L709.8,700.1l-9.1,154.5L778.5,918.4z M1425.4,108.4l203.4,388.1l-486.1,76L1425.4,108.4z"/>
<linearGradient id="SVGID_3_" gradientUnits="userSpaceOnUse" x1="922.7083" y1="-2442.9573" x2="2556.5513" y2="-2442.9573" gradientTransform="matrix(7.006387e-02 -1.0442 0.4867 1.010283e-02 1239.3165 1348.7214)">
	<stop  offset="1.187570e-02" style="stop-color:#2A7FC2;stop-opacity:0.2"/>
	<stop  offset="0.3894" style="stop-color:#4594D0"/>
	<stop  offset="0.6417" style="stop-color:#297FC3;stop-opacity:3.000000e-02"/>
	<stop  offset="1" style="stop-color:#2581C4;stop-opacity:0"/>
</linearGradient>
<path class="st4" d="M365.7,207.7l-481.3-443.1l453.7-1011.7l-106.9-98.4L-265.5-209.2l481.3,443.1
	c79.5,73.2,116.5,100.5,165.6,120.8c26.8,11.2,53,14.9,78.4,11.2c26.1-3,51.8-14.8,75.9-34.1c-1.6-0.6-3.2-1.3-4.7-2
	C482.1,308.5,445.2,280.9,365.7,207.7z"/>
<rect x="283.7" y="-214.9" transform="matrix(5.848220e-02 -0.9983 0.9983 5.848220e-02 197.9389 1249.5631)" class="st1" width="955.4" height="1469.5"/>
<g>
	<defs>
		
			<rect id="SVGID_17_" x="-350.5" y="-1009.3" transform="matrix(5.848223e-02 -0.9983 0.9983 5.848223e-02 130.4675 639.3502)" width="1509.4" height="2519.7"/>
	</defs>
	<clipPath id="SVGID_4_">
		<use xlink:href="#SVGID_17_"  style="overflow:visible;"/>
	</clipPath>
	<path style="clip-path:url(#SVGID_4_);fill:#F5F4F5;" d="M470.7,447.9c-29.3,36.9-70.6,66.7-118.6,86.1
		c-93.4,40.4-191,40.5-343.2,3.6c61.1,45.6,84,65.1,110.2,99.4c24.5,31.9,40.7,65.5,48.3,99.5l499.4-165.6L470.7,447.9z"/>
	<path style="clip-path:url(#SVGID_4_);fill:none;" d="M-86.4,110.2L-628-123.6l-59.1,61.3l-143.6,149l557.9,239.1l75.8,32.5
		c43.1,16.7,93.2,24.9,132.3,22.5c57.3-6.1,105.3-37.2,128.2-83c14.2-28.4,17.2-55.9,5.8-82c-7.2-15.3-17.9-28.6-35.4-42.2
		l-43.4-27.3C-29.8,135.6-55,123.8-86.4,110.2z"/>
	<path style="clip-path:url(#SVGID_4_);fill:#F5F4F5;" d="M-50.2,1048.8l264.4,15.5L117.5,925C117.5,925,67.1,1002.9-50.2,1048.8z"
		/>
	<polygon style="clip-path:url(#SVGID_4_);fill:#F5F4F5;" points="1636.3,888.3 1684.1,71.2 1251.2,142.7 1120.1,362 1002.1,377 
		997.2,461.4 1316.9,355.4 1473.7,581 1390.7,607.8 1439.7,678.5 809,885.3 	"/>
	<polygon style="clip-path:url(#SVGID_4_);fill:#F5F4F5;" points="1113.6,-533 801.6,-551.3 768.3,17.1 	"/>
</g>
</svg>
