<?xml version="1.0" encoding="utf-8"?>
<!-- Generator: Adobe Illustrator 22.1.0, SVG Export Plug-In . SVG Version: 6.00 Build 0)  -->
<svg version="1.1" id="Ebene_1" xmlns="http://www.w3.org/2000/svg" xmlns:xlink="http://www.w3.org/1999/xlink" x="0px" y="0px"
	 viewBox="0 0 1522.8 1039.7" style="enable-background:new 0 0 1522.8 1039.7;" xml:space="preserve">
<style type="text/css">
	.st0{fill:url(#SVGID_1_);}
	.st1{fill:url(#SVGID_2_);}
	.st2{fill:url(#SVGID_3_);}
	.st3{fill:#F5F4F5;}
	.st4{fill:url(#SVGID_4_);}
</style>
<linearGradient id="SVGID_1_" gradientUnits="userSpaceOnUse" x1="913.2534" y1="1775.0331" x2="2896.1235" y2="1775.0331" gradientTransform="matrix(-0.69 0.73 1.06 1 238.85 -3115.96)">
	<stop  offset="1.000000e-02" style="stop-color:#2A7FC2;stop-opacity:0.2"/>
	<stop  offset="0.39" style="stop-color:#4594D0"/>
	<stop  offset="0.64" style="stop-color:#297FC3;stop-opacity:3.000000e-02"/>
	<stop  offset="1" style="stop-color:#2581C4;stop-opacity:0"/>
</linearGradient>
<polygon class="st0" points="797.6,-275.2 408.6,137.1 796.8,393.2 955.6,224.8 "/>
<linearGradient id="SVGID_2_" gradientUnits="userSpaceOnUse" x1="334.213" y1="3815.0425" x2="2317.083" y2="3815.0425" gradientTransform="matrix(6.000000e-02 -1 -0.48 -3.000000e-02 2124.3 2203.55)">
	<stop  offset="1.000000e-02" style="stop-color:#2A7FC2;stop-opacity:0.2"/>
	<stop  offset="0.39" style="stop-color:#4594D0"/>
	<stop  offset="0.64" style="stop-color:#297FC3;stop-opacity:3.000000e-02"/>
	<stop  offset="1" style="stop-color:#2581C4;stop-opacity:0"/>
</linearGradient>
<polygon class="st1" points="352.8,934.8 240.5,705 247.8,579.9 149.7,451.1 257.3,418.8 266.1,267.3 887.4,-73.1 894.5,-194.7 
	-55.5,154.7 -80.8,587.8 -43.9,639.2 -21.8,590 "/>
<linearGradient id="SVGID_3_" gradientUnits="userSpaceOnUse" x1="1199.3575" y1="2082.4443" x2="2530.3076" y2="2082.4443" gradientTransform="matrix(-4.000000e-02 -0.93 -1.05 3.000000e-02 3690.48 2128.77)">
	<stop  offset="1.000000e-02" style="stop-color:#2A7FC2;stop-opacity:0.2"/>
	<stop  offset="3.000000e-02" style="stop-color:#4594D0"/>
	<stop  offset="0.35" style="stop-color:#2581C4;stop-opacity:0"/>
	<stop  offset="0.64" style="stop-color:#297FC3;stop-opacity:3.000000e-02"/>
	<stop  offset="0.84" style="stop-color:#4493D0;stop-opacity:0.94"/>
	<stop  offset="1" style="stop-color:#2581C4;stop-opacity:0"/>
</linearGradient>
<path class="st2" d="M778.5,918.4l70.8,58.1l27.7,22.7l135.5-218.4l712.3-111.3l98.7,184.7l366.1-57.2l-571.1-973.1l-375.9,58.8
	L709.8,700.1l-9,154.5L778.5,918.4z M1425.4,108.4l203.4,388.1l-486.1,76L1425.4,108.4z"/>
<g>
	<path class="st3" d="M470.7,439.9c-29.3,36.9-70.6,66.7-118.6,86.1c-93.4,40.4-191,40.5-343.2,3.6c61.1,45.6,84,65.1,110.2,99.4
		c24.5,31.9,40.8,65.5,48.3,99.5l499.4-165.6L470.7,439.9z"/>
	<path class="st3" d="M-50.2,1040.8l264.4,15.5L117.5,917C117.5,917,67.2,994.9-50.2,1040.8z"/>
	<polygon class="st3" points="1636.3,880.3 1684.1,63.2 1251.2,134.7 1120.1,354 1002.1,369 997.2,453.4 1316.9,347.4 1473.7,573 
		1390.7,599.8 1439.7,670.5 809,877.3 	"/>
</g>
<g>
	<linearGradient id="SVGID_4_" gradientUnits="userSpaceOnUse" x1="-52.5905" y1="177.7172" x2="531.7899" y2="177.7172">
		<stop  offset="1.000000e-02" style="stop-color:#2A7FC2;stop-opacity:0.2"/>
		<stop  offset="0.39" style="stop-color:#4594D0"/>
		<stop  offset="0.64" style="stop-color:#297FC3;stop-opacity:3.000000e-02"/>
		<stop  offset="1" style="stop-color:#2581C4;stop-opacity:0"/>
	</linearGradient>
	<path class="st4" d="M365.7,207.7L127.1-11.8H-51.2l267,245.7c79.5,73.2,116.5,100.5,165.5,120.8c26.8,11.2,53,14.9,78.4,11.2
		c26.1-3,51.8-14.8,75.9-34.1c-1.6-0.6-3.2-1.3-4.8-2C482.1,308.5,445.2,280.9,365.7,207.7z"/>
</g>
</svg>
