<?xml version="1.0" encoding="utf-8"?>
<!-- Generator: Adobe Illustrator 22.1.0, SVG Export Plug-In . SVG Version: 6.00 Build 0)  -->
<svg version="1.1" id="Ebene_1" xmlns="http://www.w3.org/2000/svg" xmlns:xlink="http://www.w3.org/1999/xlink" x="0px" y="0px"
	 viewBox="0 0 397 360.2" style="enable-background:new 0 0 397 360.2;" xml:space="preserve">
<path d="M0,71.8c0,0,0-7.1,6.4-10.3L125.9,1.6c0,0,6.4-3.2,13.1-0.7l251.3,94.3c0,0,6.7,2.5,6.7,9.7v184.4c0,0,0,7.1-6.4,10.3
	l-119.5,59.8c0,0-6.4,3.2-6.4-3.9V254c0,0,0-7.1-6.4-3.9l-119.5,59.8c0,0-6.4,3.2-6.4-3.9V204.3c0,0,0-7.1-6.4-3.9L6.4,260.2
	c0,0-6.4,3.2-6.4-3.9V71.8L0,71.8z"/>
</svg>
