<?xml version="1.0" encoding="utf-8"?>
<!-- Generator: Adobe Illustrator 22.1.0, SVG Export Plug-In . SVG Version: 6.00 Build 0)  -->
<svg version="1.1" id="Ebene_1" xmlns="http://www.w3.org/2000/svg" xmlns:xlink="http://www.w3.org/1999/xlink" x="0px" y="0px"
	 viewBox="0 0 537.5 148.4" style="enable-background:new 0 0 537.5 148.4;" xml:space="preserve">
<style type="text/css">
	.st0{fill:none;stroke:#000000;stroke-width:2.5;}
	.st1{fill:none;stroke:#000000;stroke-width:2.5764;}
</style>
<path class="st0" d="M478.8,115.2c31.2,0,56.5-25.3,56.5-56.5c0-31.2-25.3-56.5-56.5-56.5c-31.2,0-56.5,25.3-56.5,56.5
	C422.3,89.9,447.6,115.2,478.8,115.2L478.8,115.2z M478.8,100.8c23.2,0,42.1-18.8,42.1-42.1c0-23.2-18.8-42.1-42.1-42.1
	c-23.2,0-42.1,18.8-42.1,42.1C436.7,81.9,455.5,100.8,478.8,100.8L478.8,100.8z M478.5,83.4c13.5,0,24.5-11,24.5-24.5
	c0-13.5-11-24.5-24.5-24.5c-13.5,0-24.5,11-24.5,24.5C454,72.4,465,83.4,478.5,83.4L478.5,83.4z"/>
<path d="M81.5,63.7c0-13.6-17-17.8-31.5-17.8c-15.1,0-38.2,4.3-38.2,22.9c0,23.7,38.1,15.3,38.1,28.6c0,6.1-6.5,7.9-11.8,7.9
	c-6.1,0-10.6-2.6-10.7-7.5c0-0.9,0-1.8,0.4-3.4h-26c-0.3,2.3-0.5,2.6-0.5,4.3c0,15.7,20.5,18.8,34.8,18.8c16,0,39.1-3.3,39.1-24
	c0-23.6-38.1-15.2-38.1-28.1c0-5.2,4.9-7.6,10.7-7.6c6,0,9.2,3,9.2,6.6c0,1.1-0.1,2-0.5,3.7h24.7C81.4,66.3,81.5,65.2,81.5,63.7
	L81.5,63.7z M165.6,71c0-18.7-15.9-25-32.4-25c-14.4,0-26.4,3.8-35.7,12.6C89,66.8,83.4,79.8,83.4,91.5c0,8.3,3.8,15.6,10.4,19.9
	c6.4,4.2,14.6,6.1,27,6.1c21.2,0,34-6.9,40.1-24.3h-26.4c-2.7,7.6-6,11.3-14.5,11.3c-7.5,0-10.8-4.1-10.8-9.8c0-2.6,0.3-4.9,1.5-8.9
	H163C164.5,81,165.6,75.6,165.6,71L165.6,71z M140.4,68.2c0,1.6-0.1,3.1-0.8,5.6h-25.4c3-9.8,7.9-15.2,16.8-15.2
	C138.2,58.5,140.4,63.3,140.4,68.2L140.4,68.2z M256.6,65.6c0-12.1-8-19.1-22.2-19.1c-10.2,0-17.6,3.5-24.1,9.8l2-8.7H184
	c-1.2,6-2.3,10.2-4.1,16.1L164.8,116H193l10.7-37.2c2.2-7.7,6-17.5,16.1-17.5c5.4,0,8.1,3.4,8.1,7.9c0,2.4-0.7,5.2-1.8,9l-11,37.8
	h28.2l10.2-35.4C255.4,74.4,256.6,69.1,256.6,65.6L256.6,65.6z M337.5,63.7c0-13.6-17-17.8-31.5-17.8c-15.1,0-38.2,4.3-38.2,22.9
	c0,23.7,38.1,15.3,38.1,28.6c0,6.1-6.5,7.9-11.8,7.9c-6.1,0-10.6-2.6-10.7-7.5c0-0.9,0-1.8,0.4-3.4h-26c-0.3,2.3-0.5,2.6-0.5,4.3
	c0,15.7,20.5,18.8,34.8,18.8c16,0,39.1-3.3,39.1-24c0-23.6-38.1-15.2-38.1-28.1c0-5.2,4.9-7.6,10.7-7.6c6,0,9.2,3,9.2,6.6
	c0,1.1-0.1,2-0.5,3.7h24.7C337.4,66.3,337.5,65.2,337.5,63.7L337.5,63.7z M425.5,73c0-16.5-12.6-27-35.7-27
	c-13.4,0-25.6,3.3-34.3,10.3c-10.2,8.1-16.1,20.1-16.1,33.5c0,16.7,11.7,27.7,36.3,27.7c16.5,0,30.4-5.4,38.5-15.3
	C420.5,94.5,425.5,83.6,425.5,73L425.5,73z M398.2,70.1c0,6.8-2.8,13.8-5.2,20.1c-2.7,7.3-7.3,13.7-15.9,13.7
	c-6.6,0-10.7-3.9-10.7-10c0-3,0.4-6,1.5-10c1.2-4.6,3.1-9.9,5.2-14c3.3-6.5,7.7-10.2,14.4-10.2C395,59.6,398.2,63.5,398.2,70.1
	L398.2,70.1z"/>
<path d="M478.7,69.6c6,0,10.9-4.9,10.9-10.9s-4.9-10.9-10.9-10.9s-10.9,4.9-10.9,10.9S472.7,69.6,478.7,69.6L478.7,69.6z"/>
<path class="st1" d="M478.7,69.6c6,0,10.9-4.9,10.9-10.9s-4.9-10.9-10.9-10.9s-10.9,4.9-10.9,10.9S472.7,69.6,478.7,69.6L478.7,69.6
	z"/>
<polygon points="441.9,47.5 469.1,47.8 450.4,115.9 423,115.9 441.9,47.5 "/>
<path d="M400.6,145.9h2.2l-1.2-20.5H399l-2.3,9.3c-0.7,2.8-1.1,4.7-1.5,7h-0.1c-0.4-2.3-0.9-4.3-1.6-7l-2.4-9.3h-2.6l-1.2,20.5h2.1
	l0.4-8.6c0.1-2.9,0.3-5.8,0.2-8.2h0.1c0.4,2.4,1,4.9,1.7,7.5l2.4,9.2h1.5l2.5-9.6c0.6-2.4,1.2-4.8,1.6-7.1h0.1
	c-0.1,2.3,0.1,5.3,0.2,8L400.6,145.9L400.6,145.9z M413.6,136.2c0-3.3-1.2-5.2-4.2-5.2c-1.5,0-2.8,0.5-3.4,1l0.5,1.6
	c0.7-0.5,1.5-0.8,2.4-0.8c1.8,0,2.3,1.3,2.3,3.3v0.5c-3.3,0-6.3,1.6-6.3,5.3c0,2.5,1.5,4.2,3.5,4.2c1.3,0,2.3-0.7,2.9-1.8h0.1
	l0.2,1.5h2.1c-0.1-0.9-0.2-2.2-0.2-3.3V136.2L413.6,136.2z M411.3,141.3c0,0.3,0,0.6-0.1,0.8c-0.3,1.5-1.1,2.2-2.2,2.2
	c-0.8,0-1.8-0.7-1.8-2.6c0-3.2,2.8-3.4,4-3.4V141.3L411.3,141.3z M419.2,145.9v-14.7h-2.3v14.7H419.2L419.2,145.9z M418,125.9
	c-0.8,0-1.4,0.6-1.4,1.5c0,0.9,0.6,1.5,1.3,1.5c0.9,0,1.4-0.6,1.4-1.5C419.4,126.5,418.8,125.9,418,125.9L418,125.9z M422.4,145.9
	h2.3v-9.2c0-0.5,0-1,0.1-1.3c0.3-1.5,1.2-2.4,2.2-2.4c1.7,0,2,1.7,2,3.5v9.4h2.3v-9.9c0-3.6-1.5-5-3.6-5c-1.5,0-2.7,0.8-3.4,2h-0.1
	l-0.1-1.8h-2c0,1.2,0.1,2.1,0.1,3.8V145.9L422.4,145.9z M433.6,145.9h8.4V144h-5.7v-0.1c0.3-0.7,0.8-1.5,1.2-2.2l4.6-9v-1.5h-7.8
	v1.9h5.2v0.1c-0.3,0.6-0.8,1.4-1.2,2.2l-4.6,9.1V145.9L433.6,145.9z M445.6,146.2c1,0,1.6-0.7,1.6-1.8c0-1.1-0.6-1.8-1.5-1.8
	c-0.9,0-1.5,0.7-1.5,1.8C444.1,145.5,444.8,146.2,445.6,146.2L445.6,146.2z"/>
<path d="M215.3,145.9h2.3v-9.3h5.1v-2h-5.1v-7.2h5.5v-2h-7.8V145.9L215.3,145.9z M234,131.2h-2.3v9.7c0,0.5,0,0.9-0.1,1.3
	c-0.1,0.7-0.7,1.9-2.1,1.9c-1.6,0-2-1.7-2-4v-9h-2.3v9.3c0,3.6,1,5.6,3.6,5.6c1.6,0,2.7-1.1,3.1-1.8h0.1l0.2,1.5h2
	c0-1.1-0.1-2.4-0.1-4V131.2L234,131.2z M227.3,128.8c0.8,0,1.3-0.6,1.3-1.3c0-0.8-0.6-1.4-1.3-1.4c-0.8,0-1.4,0.6-1.4,1.4
	C226,128.2,226.6,128.8,227.3,128.8L227.3,128.8z M232,128.8c0.8,0,1.3-0.6,1.3-1.3c0-0.8-0.6-1.4-1.3-1.4c-0.8,0-1.4,0.6-1.4,1.4
	C230.7,128.2,231.3,128.8,232,128.8L232,128.8z M237.2,145.9h2.3v-9.5c0-0.4,0-0.8,0.1-1.1c0.4-1.5,1.2-2.3,2.3-2.3
	c1.6,0,2,1.7,2,3.5v9.5h2.3v-9.7c0-3.7-1.6-5.2-3.4-5.2c-0.8,0-1.4,0.2-1.9,0.5c-0.5,0.3-0.9,0.8-1.2,1.3h-0.1v-7.9h-2.3V145.9
	L237.2,145.9z M249.5,145.9h2.3v-21h-2.3V145.9L249.5,145.9z M263.8,138.8c0-0.4,0.1-0.8,0.1-1.3c0-3.3-1.2-6.4-4.2-6.4
	c-2.9,0-5,3-5,7.7c0,4.5,1.8,7.4,5.3,7.4c1.2,0,2.4-0.3,3.2-0.7l-0.4-1.7c-0.6,0.3-1.4,0.5-2.4,0.5c-1.7,0-3.5-0.9-3.5-5.5H263.8
	L263.8,138.8z M257,137.1c0.1-2,0.8-4.2,2.4-4.2c1.1,0,2.2,1.3,2.2,4.2H257L257,137.1z M277.6,124.9v7.8h-0.1
	c-0.6-1.2-1.6-1.7-2.7-1.7c-2.2,0-4.4,2.4-4.4,7.6c0,4.9,1.8,7.5,4.2,7.5c1.6,0,2.6-1,3.1-2.1h0.1l0.2,1.8h2c0-0.8-0.1-2.5-0.1-3.5
	v-17.5H277.6L277.6,124.9z M277.6,140.7c0,0.4,0,0.7-0.1,1c-0.5,2.1-1.5,2.5-2.2,2.5c-1.7,0-2.5-2.5-2.5-5.6c0-2.9,0.7-5.6,2.6-5.6
	c1.1,0,2,1.3,2.2,2.9c0,0.3,0,0.7,0,1V140.7L277.6,140.7z M291.7,138.8c0-0.4,0.1-0.8,0.1-1.3c0-3.3-1.2-6.4-4.2-6.4
	c-2.9,0-5,3-5,7.7c0,4.5,1.8,7.4,5.3,7.4c1.2,0,2.4-0.3,3.2-0.7l-0.4-1.7c-0.6,0.3-1.4,0.5-2.4,0.5c-1.7,0-3.5-0.9-3.5-5.5H291.7
	L291.7,138.8z M284.9,137.1c0.1-2,0.8-4.2,2.4-4.2c1.1,0,2.2,1.3,2.2,4.2H284.9L284.9,137.1z M296.6,145.9v-14.7h-2.3v14.7H296.6
	L296.6,145.9z M295.4,125.9c-0.8,0-1.4,0.6-1.4,1.5c0,0.9,0.6,1.5,1.3,1.5c0.9,0,1.4-0.6,1.4-1.5
	C296.8,126.5,296.2,125.9,295.4,125.9L295.4,125.9z M299.8,145.9h2.3v-9.2c0-0.5,0-1,0.1-1.3c0.3-1.5,1.2-2.4,2.2-2.4
	c1.7,0,2,1.7,2,3.5v9.4h2.3v-9.9c0-3.6-1.5-5-3.6-5c-1.5,0-2.7,0.8-3.4,2h-0.1l-0.1-1.8h-2c0,1.2,0.1,2.1,0.1,3.8V145.9L299.8,145.9
	z M320.6,138.8c0-0.4,0.1-0.8,0.1-1.3c0-3.3-1.2-6.4-4.2-6.4c-2.9,0-5,3-5,7.7c0,4.5,1.8,7.4,5.3,7.4c1.2,0,2.4-0.3,3.2-0.7
	l-0.4-1.7c-0.6,0.3-1.4,0.5-2.4,0.5c-1.7,0-3.5-0.9-3.5-5.5H320.6L320.6,138.8z M313.8,137.1c0.1-2,0.8-4.2,2.4-4.2
	c1.1,0,2.2,1.3,2.2,4.2H313.8L313.8,137.1z M327.1,145.2c0.6,0.4,2,0.9,3.4,0.9c3.3,0,5.7-2.2,5.7-5.7c0-2.3-1.1-4.2-3.6-5.9
	c-1.9-1.4-3-2.2-3-4.2c0-1.4,0.9-2.9,3-2.9c1.1,0,1.9,0.3,2.4,0.7l0.5-2c-0.5-0.4-1.6-0.8-2.9-0.8c-3.2,0-5.4,2.3-5.4,5.4
	c0,2.6,2.2,4.6,3.9,5.7c1.6,1.2,2.7,2.4,2.7,4.2c0,2.1-1.3,3.5-3.4,3.5c-1,0-2.2-0.4-2.9-0.8L327.1,145.2L327.1,145.2z M339.3,128.8
	v2.5h-1.8v1.8h1.8v8.5c0,2,0.3,3,0.9,3.7c0.5,0.6,1.4,0.9,2.3,0.9c0.8,0,1.3-0.1,1.7-0.2l-0.1-1.8c-0.2,0.1-0.5,0.1-0.9,0.1
	c-0.9,0-1.5-0.5-1.5-2.4V133h2.8v-1.8h-2.8v-3.4L339.3,128.8L339.3,128.8z M354.2,136.2c0-3.3-1.2-5.2-4.2-5.2c-1.5,0-2.8,0.5-3.4,1
	l0.5,1.6c0.7-0.5,1.5-0.8,2.4-0.8c1.8,0,2.3,1.3,2.3,3.3v0.5c-3.3,0-6.3,1.6-6.3,5.3c0,2.5,1.5,4.2,3.5,4.2c1.3,0,2.3-0.7,2.9-1.8
	h0.1l0.2,1.5h2.1c-0.1-0.9-0.2-2.2-0.2-3.3V136.2L354.2,136.2z M351.9,141.3c0,0.3,0,0.6-0.1,0.8c-0.3,1.5-1.1,2.2-2.2,2.2
	c-0.8,0-1.8-0.7-1.8-2.6c0-3.2,2.8-3.4,4-3.4V141.3L351.9,141.3z M364.1,124.9v7.8H364c-0.6-1.2-1.6-1.7-2.7-1.7
	c-2.2,0-4.4,2.4-4.4,7.6c0,4.9,1.8,7.5,4.2,7.5c1.6,0,2.6-1,3.1-2.1h0.1l0.2,1.8h2c0-0.8-0.1-2.5-0.1-3.5v-17.5H364.1L364.1,124.9z
	 M364.1,140.7c0,0.4,0,0.7-0.1,1c-0.5,2.1-1.5,2.5-2.2,2.5c-1.7,0-2.5-2.5-2.5-5.6c0-2.9,0.7-5.6,2.6-5.6c1.1,0,2,1.3,2.2,2.9
	c0,0.3,0,0.7,0,1V140.7L364.1,140.7z M370.2,128.8v2.5h-1.8v1.8h1.8v8.5c0,2,0.3,3,0.9,3.7c0.5,0.6,1.4,0.9,2.3,0.9
	c0.8,0,1.3-0.1,1.7-0.2l-0.1-1.8c-0.2,0.1-0.5,0.1-0.9,0.1c-0.9,0-1.5-0.5-1.5-2.4V133h2.8v-1.8h-2.8v-3.4L370.2,128.8L370.2,128.8z
	 M378.3,146.2c1,0,1.6-0.7,1.6-1.8c0-1.1-0.6-1.8-1.5-1.8c-0.9,0-1.5,0.7-1.5,1.8C376.8,145.5,377.5,146.2,378.3,146.2L378.3,146.2z
	"/>
</svg>
